<?xml version="1.0" encoding="iso-8859-1"?>
<!-- Generator: Adobe Illustrator 19.0.0, SVG Export Plug-In . SVG Version: 6.00 Build 0)  -->
<svg version="1.1" id="Capa_1" xmlns="http://www.w3.org/2000/svg" xmlns:xlink="http://www.w3.org/1999/xlink" x="0px" y="0px"
	 viewBox="0 0 496 496" style="enable-background:new 0 0 496 496;" xml:space="preserve">
<g>
	<g>
		<path d="M496,311.24V184.76l-60.392-6.04c-1.808-4.896-3.792-9.712-5.944-14.4l38.416-46.968L378.648,27.92l-46.96,38.424
			c-4.68-2.16-9.504-4.152-14.416-5.96L311.24,0H184.76l-6.032,60.384c-4.904,1.808-9.736,3.8-14.416,5.96l-46.96-38.424
			L27.92,117.352l38.416,46.968c-2.16,4.688-4.144,9.504-5.944,14.4L0,184.76v126.48l60.392,6.04
			c1.808,4.896,3.792,9.712,5.944,14.4L27.92,378.648l89.432,89.432l46.96-38.424c4.68,2.16,9.504,4.152,14.416,5.96L184.76,496
			h126.488l6.032-60.384c4.904-1.808,9.736-3.8,14.416-5.96l46.96,38.424l89.424-89.432l-38.416-46.968
			c2.16-4.688,4.144-9.504,5.944-14.4L496,311.24z M446.528,377.568l-68.96,68.96L333.904,410.8l-4.616,2.28
			c-7.024,3.464-14.44,6.528-22.048,9.12l-4.864,1.656L296.76,480h-97.52l-5.616-56.152l-4.864-1.656
			c-7.608-2.584-15.024-5.656-22.048-9.12l-4.616-2.28l-43.664,35.728l-68.96-68.96L85.2,333.896l-2.272-4.616
			c-3.472-7.04-6.536-14.456-9.112-22.04l-1.656-4.872L16,296.76v-97.52l56.16-5.616l1.656-4.872c2.568-7.584,5.64-15,9.112-22.04
			l2.272-4.616l-35.728-43.664l68.96-68.96L162.096,85.2l4.616-2.28c7.024-3.464,14.44-6.528,22.048-9.12l4.864-1.656L199.24,16
			h97.512l5.616,56.152l4.864,1.656c7.608,2.584,15.024,5.656,22.048,9.12l4.616,2.28L377.56,49.48l68.96,68.96l-35.728,43.664
			l2.272,4.616c3.472,7.04,6.536,14.456,9.112,22.04l1.656,4.872L480,199.24v97.52l-56.16,5.616l-1.656,4.872
			c-2.568,7.584-5.64,15-9.112,22.04l-2.272,4.616L446.528,377.568z"/>
	</g>
</g>
<g>
	<g>
		<path d="M304.808,136c-21.072,0-41,7.424-56.808,21.032C232.192,143.424,212.264,136,191.192,136
			C143.12,136,104,175.12,104,223.192c0,23.296,9.072,45.184,25.536,61.656L248,403.312l118.464-118.464
			C382.928,268.384,392,246.488,392,223.192C392,175.12,352.88,136,304.808,136z M355.152,273.536L248,380.688L140.848,273.536
			C127.408,260.088,120,242.208,120,223.192C120,183.936,151.936,152,191.192,152c19.016,0,36.896,7.408,50.344,20.848l6.464,6.464
			l6.464-6.464c13.44-13.44,31.328-20.848,50.344-20.848C344.064,152,376,183.936,376,223.192
			C376,242.208,368.592,260.088,355.152,273.536z"/>
	</g>
</g>
<g>
	<g>
		<rect x="240" y="56" width="16" height="16"/>
	</g>
</g>
<g>
	<g>
		<rect x="109.893" y="109.894" transform="matrix(0.7071 -0.7071 0.7071 0.7071 -48.8335 117.8928)" width="16" height="16"/>
	</g>
</g>
<g>
	<g>
		<rect x="56" y="240" width="16" height="16"/>
	</g>
</g>
<g>
	<g>
		<rect x="109.875" y="370.113" transform="matrix(0.7072 -0.707 0.707 0.7072 -232.8158 194.0474)" width="16" height="16"/>
	</g>
</g>
<g>
	<g>
		<rect x="240" y="424" width="16" height="16"/>
	</g>
</g>
<g>
	<g>
		<rect x="370.066" y="370.08" transform="matrix(0.7071 -0.7071 0.7071 0.7071 -156.6099 378.0703)" width="16" height="16"/>
	</g>
</g>
<g>
	<g>
		<rect x="424" y="240" width="16" height="16"/>
	</g>
</g>
<g>
	<g>
		<rect x="370.044" y="109.907" transform="matrix(0.7072 -0.707 0.707 0.7072 27.3279 301.8026)" width="16" height="16"/>
	</g>
</g>
<g>
</g>
<g>
</g>
<g>
</g>
<g>
</g>
<g>
</g>
<g>
</g>
<g>
</g>
<g>
</g>
<g>
</g>
<g>
</g>
<g>
</g>
<g>
</g>
<g>
</g>
<g>
</g>
<g>
</g>
</svg>
